<svg xmlns="http://www.w3.org/2000/svg" viewBox="0 0 198.7 198.7">
<!-- SVG created with Arrow, by QuiverAI (https://quiver.ai) -->
  <style type="text/css">.cls-0 {fill:#F4EADB;stroke:#1C452D;stroke-width:5;}
.cls-1 {fill:none;stroke:#F4EADB;stroke-width:2;}
.cls-2 {fill:#1C452D;}
.cls-3 {fill:none;stroke:#26221A;stroke-width:0.75;stroke-linecap:round;stroke-linejoin:round;}
.cls-4 {fill:#F4EADB;}
.cls-5 {fill:none;stroke:#8B7751;stroke-width:0.75;}
.cls-6 {fill:url(#SVGID_1_);stroke:#26221A;stroke-width:0.6;stroke-linecap:round;stroke-linejoin:round;}
.cls-7 {fill:#DDCCAE;stroke:#26221A;stroke-width:0.5375;stroke-linecap:round;stroke-linejoin:round;}
.cls-8 {fill:#BC9C71;stroke:#26221A;stroke-width:0.5;stroke-linecap:round;stroke-linejoin:round;}
.cls-9 {fill:none;stroke:#26221A;stroke-width:0.25;stroke-linecap:round;stroke-linejoin:round;}
.cls-10 {fill:#99774C;stroke:#26221A;stroke-width:0.5;stroke-linecap:round;stroke-linejoin:round;}
.cls-11 {fill:none;stroke:#DDCCAE;stroke-width:0.25;stroke-miterlimit:10;}
.cls-12 {fill:none;stroke:#26221A;stroke-width:0.6;stroke-linecap:round;stroke-linejoin:round;}
.cls-13 {fill:#F5EBDA;stroke:#26221A;stroke-width:0.75;stroke-linecap:round;stroke-linejoin:round;}
.cls-14 {fill:#8B6D42;stroke:#26221A;stroke-width:0.6;stroke-linecap:round;stroke-linejoin:round;}
.cls-15 {fill:#CCA979;stroke:#26221A;stroke-width:0.6;}
.cls-16 {fill:none;stroke:#26221A;stroke-width:0.3;}
.cls-17 {fill:#EADFC7;}
.cls-18 {fill:#FFFFFF;stroke:#26221A;stroke-width:0.6;stroke-linecap:round;stroke-linejoin:round;}
.cls-19 {fill:url(#SVGID_2_);stroke:#26221A;stroke-width:0.75;stroke-linecap:round;stroke-linejoin:round;}
.cls-20 {fill:#DECBAF;stroke:#26221A;stroke-width:0.75;stroke-linecap:round;stroke-linejoin:bevel;}
.cls-21 {fill:none;stroke:#BBAC98;stroke-width:0.2;stroke-linecap:round;stroke-linejoin:round;}
.cls-22 {fill:#BEA479;stroke:#272119;stroke-width:0.5;stroke-linecap:round;stroke-linejoin:round;}
.cls-23 {fill:none;stroke:#FFFDFE;stroke-width:0.15;}
.cls-24 {fill:none;stroke:#26221A;stroke-width:0.15;stroke-linecap:round;stroke-linejoin:round;}
.cls-25 {fill:#2E1E14;}
.cls-26 {fill:#F1ECDC;}
.cls-27 {fill:none;stroke:#26221A;stroke-width:0.25;}
.cls-28 {fill:#DDC7A4;stroke:#272119;stroke-width:0.5;stroke-linecap:round;stroke-linejoin:round;}
.cls-29 {fill:none;stroke:#26221A;stroke-width:0.5;stroke-linecap:round;stroke-linejoin:round;}
.cls-30 {fill:none;stroke:#26221A;stroke-width:0.4;stroke-linecap:round;stroke-linejoin:round;}
.cls-31 {fill-rule:evenodd;clip-rule:evenodd;fill:#26221A;}
.cls-32 {fill:#EEE6CF;}
.cls-33 {fill:#FAF5ED;}
.cls-34 {fill:#DBCAB0;}
.cls-35 {fill:none;stroke:#877048;stroke-width:0.15;}
.cls-36 {fill:#1D1D1B;}
.cls-37 {fill:#EDE4CE;}</style>
  <circle class="cls-0" cx="99.4" cy="99.4" r="97.4"/>
  <circle class="cls-1" cx="99.4" cy="99.4" r="93.4"/>
  <path class="cls-2" d="m171 82.8 15-4c-8.6-35.8-42.1-69.7-86.6-69.7s-77.1 29.8-87.4 69.4l15.8 4.5c6.6-23.8 29.5-55.7 71.5-55.7 37.6 0 66.3 28.1 71.7 55.7z"/>
  <circle class="cls-1" cx="99.4" cy="99.4" r="89.9"/>
  <path class="cls-5" d="m36.4 135.1c-5.3-9.4-8.7-21.4-8.7-33.9 0-35.1 28.9-72.7 71.7-73.7 39.2-0.9 71.7 30.3 71.7 73.5 0 11-2.7 21.9-8.1 32.7"/>
  <path class="cls-5" d="m58.2 157.9c11.5 7.7 25.2 12.6 41.2 12.6 13.9 0 25.5-3.6 38.1-10.8"/>
  <path class="cls-5" d="m83.9 86.7v-9.7c0.1-2.8-2.2-5.2-5-5.5h-7.4"/>
  <path class="cls-5" d="m109.9 79.9v-3c0.1-2.8 2.4-5.3 5.2-5.4h8.1"/>
  <path class="cls-5" d="m130.9 102.5h11.6c3.1 0.5 5.4-2 5.3-5.2v-8.2"/>
  <path class="cls-5" d="m63 102.5h-9.3c-2.9 0.1-5.2-2.3-5.2-5.2v-13.2"/>
  <path class="cls-5" d="m48.5 133.8v-15.5c0-2.7 2.2-4.9 4.9-4.9h14.8"/>
  <path class="cls-5" d="m73.1 150.8h13.1c2.8-0.2 4.8-2.4 4.9-5v-6.1"/>
  <path class="cls-5" d="m110.2 135.8v9.4c0.2 2.9 2.6 5.5 5.8 5.6h7.9"/>
  <path class="cls-5" d="m136.2 113.3h9.4c2.8-0.1 5.1 2.1 5.1 4.8v15.1"/>
  <linearGradient id="SVGID_1_" x1="99.18" x2="99.18" y1="-176.7" y2="-162.3" gradientTransform="translate(0 240)" gradientUnits="userSpaceOnUse">
    <stop stop-color="#F5EBDA" offset="0"/>
    <stop stop-color="#E5D4B7" offset=".16"/>
    <stop stop-color="#D0BA93" offset=".38"/>
    <stop stop-color="#C1A779" offset=".61"/>
    <stop stop-color="#B89B6A" offset=".82"/>
    <stop stop-color="#B59765" offset="1"/>
  </linearGradient>
  <polygon class="cls-6" points="94.1 61.2 99.2 69.7 104.3 61.2"/>
  <polyline class="cls-1" points="99.2 67.9 99.2 68.2 99.1 68.1"/>
  <line class="cls-5" x1="99.2" x2="99.2" y1="71.5" y2="82.9"/>
  <linearGradient id="SVGID_2_" x1="144.4" x2="144.4" y1="-64.78" y2="-56.31" gradientTransform="translate(0 221)" gradientUnits="userSpaceOnUse">
    <stop stop-color="#755939" offset="0"/>
    <stop stop-color="#BE9C71" offset="1"/>
  </linearGradient>
  <polygon class="cls-19" points="139.4 157.2 144.4 164.7 149.5 157.2"/>
  <path class="cls-7" d="m99.2 50.9-5.7-12.1m5.7 12.1-10.2-10.8m10.2 10.8-10.9-5.9m10.9 5.9-13.2-3.3m13.2 3.7-15.5-0.1m15.5 0.1-15.3 2.7m15.3-2.7-12.7 5.9m12.7-5.9-10 9.4m10-9.4-6.7 8.8m6.7-8.8-3.8 8.1m3.8-8.1-1.9 10.1m1.9-10.1-0.8 11.2m0.8-11.2v12.4m0-12.4 1.6 10.1m-1.6-10.1 3.3 9.5m-3.3-9.5 6.3 9.2m-6.3-9.2 10 9.7m-10-9.7 8.7 6.7m-8.3-6.7 11.3 5.9m-11.3-5.9 11.7 1.9m-11.7-1.9 15.1-0.1m-15.1 0.1 12-3.7m-12 3.7 10-7m-10 7 8.1-8m-8.1 8 8.3-11.5m-8.3 11.5 4.7-10.4m-4.7 10.4 2.5-12.4m-2.5 12.4-0.5-15.6m0.5 15.6-2.3-12.1"/>
  <polygon class="cls-4" points="101.6 50.8 101.3 49.6 100.2 50.1 100.1 48.5 99.1 49 98.5 47.9 97.7 48.8 96.7 48.3 96.5 49.9 95.3 49.3 95.5 50.9 94 50.9 94.9 52.1 93.7 52.7 94.8 53.5 93.9 54.5 95.2 54.7 94.9 56.2 96.2 55.8 96.4 57.3 97.4 56.4 98 57.3 98.7 56.6 99.6 57.3 100 56.2 101.2 56.7 101.1 55.5 102.5 55.5 101.8 54.5 102.9 53.8 102.1 53.2 102.9 52 101.5 51.9"/>
  <polyline class="cls-3" points="93.8 61.1 99.2 69.3 104.4 61.3"/>
  <polygon class="cls-8" points="50.9 82.5 56 89.5 61.3 81.7"/>
  <polyline class="cls-9" points="55.9 88.4 55.9 88.6 55.9 88.4"/>
  <polygon class="cls-13" points="40.7 78.5 52.5 81.5 72.6 78.5 72.5 78.5 70 77.9 49.2 80.5 41.6 78.3"/>
  <polygon class="cls-7" points="41.8 65.1 41.8 78.1 51.7 80.6 69.6 78.1 69.6 65.5 65.5 58.9 45.7 58.9"/>
  <polyline class="cls-3" points="41.6 65.4 40 65.4 39.8 64.3 46.1 57.4 65.6 57.3 71.5 64 71.5 64.9 52.1 65.8 46.2 58.8 41.6 64.2"/>
  <polygon class="cls-10" points="46.2 57.7 51.9 65.5 71.5 64.2 65.5 57.4"/>
  <polygon class="cls-13" points="39.1 78.6 39.1 79.9 52.3 82.7 72.6 79.8 72.6 78.7 52.5 81.5 40.2 78.5"/>
  <polygon class="cls-9" points="52.3 81.5 52.3 82.9 52.5 82.9 52.6 81.5"/>
  <path class="cls-11" d="m42.8 64.2 5.4 0.2m-5.4 0.9 6.2 0.3m-7.1 0.5 7.9 0.9m-7.3 0.5 6.1 0.3m-6.1 0.7 6.5 0.7m-7.1 0.6 7.1 0.5m-7.2 0.3 7 0.6m-6.8 0.6 6.8 0.2m-7 1 6.6 0.5m-6.1 0.9 6.7 0.4m-6.6 1.2 7.4 1.4m-7.5-0.6 9 1.7m-9-0.9 8.9 1.8m1.9 0.5 3.8-0.6"/>
  <polyline class="cls-9" points="53.2 65.6 53 80.2 52.3 80.2 52.3 65.6"/>
  <polygon class="cls-9" points="43.9 68.2 50 68.9 50 76 43.5 75"/>
  <polygon class="cls-8" points="44 68.9 49.4 69.3 49.4 75.7 43.9 74.7"/>
  <path class="cls-9" d="m46.9 69v6m-2.9-3.2 5.4 0.6"/>
  <polygon class="cls-8" points="57.6 70.7 61.5 70.3 61.5 79.6 57.5 80"/>
  <polygon class="cls-9" points="53.8 70.8 56.6 70.5 56.6 76.3 53.7 76.5"/>
  <polygon class="cls-8" points="54.3 70.9 56 70.8 56 75.8 54 75.9"/>
  <line class="cls-9" x1="54.2" x2="55.8" y1="73.4" y2="73.3"/>
  <polygon class="cls-8" points="63.2 69.6 67.9 69 67.9 75.3 63 75.7"/>
  <polygon class="cls-9" points="63.5 70 67.4 69.6 67.4 74.1 63 74.7"/>
  <path class="cls-9" d="m65.2 69.8-0.2 4.6m-1.7-2.3 4.1-0.3"/>
  <line class="cls-9" x1="44" x2="49.2" y1="73.4" y2="73.9"/>
  <path class="cls-11" d="m53.4 78 3.4-0.4m-3.6-0.4 3.6-0.5m-3.4-0.1 3.2-0.2m5.9 1.7 6.4-0.9m-6.6 0.3 6.6-1.1"/>
  <path class="cls-24" d="m47.8 60.6-3.3-0.1m3.7 0.8h-4.3m5.1 0.6-5.5-0.2m5.9 0.8-6.6-0.1"/>
  <path class="cls-24" d="m49 63.1-6.6-0.3m7.4 0.9-7.9-0.1"/>
  <path class="cls-3" d="m48.1 58.3 5.2 6.5 18.2-0.9"/>
  <line class="cls-24" x1="49.2" x2="67" y1="59.2" y2="59.2"/>
  <path class="cls-24" d="m49.8 59.8 17.6-0.1m-17 0.8h17.5m-16.9 0.8 17.6-0.5m-16.9 1.4h17.3m-16.7 0.9h17.4"/>
  <path class="cls-10" d="m53.7 66.8 1.2 2.8c0.8 0.9 2.4 0.4 2.4-0.3 0.5 1.1 2.2 0.6 2.2-0.3 0.6 1 2.1 0.8 2.4-0.4 0.8 0.9 2.6 1 2.7-0.2 1.2 1.1 2.2 0.4 2.2-0.2 1 0.9 2.4 0.3 2.4-0.3 1.3 1.6 2.7 1.4 2.6-0.6l-1.7-2.1-16.4 1.1v0.5z"/>
  <line class="cls-9" x1="56.4" x2="57.3" y1="66.4" y2="69"/>
  <line class="cls-9" x1="58.5" x2="59.6" y1="66" y2="69"/>
  <line class="cls-9" x1="60.7" x2="61.7" y1="65.6" y2="68.6"/>
  <line class="cls-9" x1="62.9" x2="64.6" y1="65.6" y2="68.2"/>
  <line class="cls-9" x1="64.7" x2="66.4" y1="65.4" y2="68.1"/>
  <line class="cls-9" x1="66.8" x2="68.3" y1="65.1" y2="67.9"/>
  <polygon class="cls-8" points="58 73.7 60.9 73.6 60.7 77 58 77.5"/>
  <polygon class="cls-8" points="60.8 71 60.9 73.6 58 73.7 57.9 71.3"/>
  <line class="cls-9" x1="62" x2="61.6" y1="69.2" y2="79.2"/>
  <polygon class="cls-9" points="68 74.1 68.6 74.2 68.6 69"/>
  <polyline class="cls-27" points="56 82.9 56 83.9 56 82.9"/>
  <polyline class="cls-27" points="57.4 82.5 57.4 83.2 57.3 82.5"/>
  <polyline class="cls-27" points="58.7 82.3 58.7 82.7 58.5 82.3"/>
  <polygon class="cls-22" points="125.5 67.9 142.6 63.1 158.4 67.7 158.2 82.4 142.1 89.4 125.5 82.5"/>
  <polygon class="cls-8" points="129.9 57.1 129.9 67.1 142.1 70.9 154.2 67.4 154.2 57.3 141.4 54.4"/>
  <polyline class="cls-3" points="129.9 57.1 141.3 54.4 154.3 57.3 154.1 67.3"/>
  <polygon class="cls-10" points="140 56.4 134.4 57.7 142.8 59.9 151 57.4 141.9 55.6"/>
  <polygon class="cls-10" points="141.1 56 141.4 58.9 143.3 59.3 143.3 55.9"/>
  <polyline class="cls-3" points="130 66.6 125.5 67.8 125.5 82.5 142.1 89.4 158.1 82.5 158.4 67.7 154.4 66.5"/>
  <polyline class="cls-9" points="135.8 57.7 141.4 55.9 142.9 55.9"/>
  <path class="cls-3" d="m136 58.3 6.2 1.5 1.3 0.3 9.6-2.8"/>
  <path class="cls-9" d="m137 58c-0.8 0.2-1 1-1 2v9.7m0.5-12c-0.9 0.4-0.9 1.6-0.9 2.6v9.3"/>
  <path class="cls-11" d="m128 68.2 12.6 4.1m-13.5-3.4 15.4 4.8 12.2-4.1"/>
  <path class="cls-9" d="m142.5 74v15.1m2-15.4v14.8"/>
  <polyline class="cls-9" points="127.6 69.2 142.6 73.6 156.6 68.8"/>
  <polyline class="cls-9" points="127.6 70.8 139.6 74.4 139.6 88.3"/>
  <polygon class="cls-9" points="128.3 71.9 139.2 76.2 139.2 84.7 128 80.7"/>
  <polyline class="cls-9" points="128.3 73 137.4 84.1 128.3 80.4"/>
  <path class="cls-9" d="m128.5 76.6 4.7 1.9m-5.2 0.5 6.9 2.3"/>
  <polyline class="cls-9" points="145 73.9 155.5 69.9 155.5 83.3 144.5 87.9"/>
  <polygon class="cls-9" points="145 75.8 155.6 71.9 155.8 80.9 145 84.8"/>
  <polyline class="cls-9" points="150.7 75.8 144.9 83.1 145 84.8 150.9 79.6"/>
  <path class="cls-9" d="m145 77.3 8.9-3.4-8.9 10m-0.1-4.3 10.7-4.9"/>
  <path class="cls-9" d="m145.2 80 10.2-4.5m-9.5 7.6 9.7-4.1"/>
  <path class="cls-3" d="m149.5 69.6c0.6-0.4 2.5 0.6 2.1 2.1v13.4c0.2 0.7-0.9 0.9-0.7 0.7"/>
  <path class="cls-9" d="m131.6 59.2 7.1 2.1 5.2 1.2 10.3-3.5"/>
  <polyline class="cls-9" points="131.8 59.8 136.2 65 136.2 69.5"/>
  <path class="cls-9" d="m144.9 62.1 0.2 9.2m-2.5-9.6v9.4"/>
  <polygon class="cls-9" points="136.5 60.7 141.9 62.1 141.9 69.8 136.2 69.2"/>
  <polyline class="cls-9" points="133.7 59.8 133.7 65.6 136.4 66.9"/>
  <path class="cls-9" d="m131.8 62.7 3.7 1.7m-3.3-3 3.6 2.1m-3.6 0.9 3.8 1.2m-4.1 0.2 4.5 1.2"/>
  <polyline class="cls-9" points="136.4 60.9 140.9 66 140.9 69"/>
  <polyline class="cls-9" points="136.6 63.7 140.4 66.9 136.6 65.6"/>
  <polyline class="cls-9" points="145.4 61.7 151 60.7 145 67.4"/>
  <polyline class="cls-9" points="152.1 60.1 152.2 67.4 145.8 68.9"/>
  <polyline class="cls-9" points="152.4 60 147.1 67.7 152.1 63.3 149.5 63.7 152.5 60.9"/>
  <path class="cls-21" d="m126.6 70.6v11.4"/>
  <path class="cls-25" d="m140.9 60.7-0.3-0.1 0.3 0.1z"/>
  <path class="cls-26" d="m140.8 60.5s-0.2 0 0 0c0 0.1 0.3 0.1 0 0z"/>
  <polygon class="cls-23" points="141.7 56.3 141.9 55.9 142.2 56"/>
  <polygon class="cls-28" points="126 137.1 126 155.4 127.1 156.9 161.5 156.9 162.8 156 162.8 136.8 161.7 135.5 127.3 135.5"/>
  <path class="cls-29" d="m127.6 135.4h33.6c1-0.1 2 0.8 2 2v18.1c0 0.9-0.7 1.7-1.7 1.8h-33.9c-0.9 0-1.8-0.8-1.8-1.7v-18.6c0-0.9 0.8-1.6 1.8-1.6z"/>
  <path class="cls-30" d="m128 136.4h32.6c1.1 0 1.1 0.7 1.1 1.3v17c0.1 0.8-0.2 1.7-1.1 1.6h-32.6c-1.1 0-1.3-0.7-1.3-1.6v-16.7c-0.1-0.7 0.4-1.5 1.3-1.6z"/>
  <path class="cls-36" d="m132.7 139.9h-1l-0.1 1.1c0.8 0 2 0.4 2.1 1.5-0.1 1.6-2.3 2.8-3.8 1.7l0.3-0.8c1.3 1.2 2.1 0.3 2.3-0.5 0.1-0.7-1.1-1-1.9-1l0.1-2.5h2.7l0.2 0.1-0.3 0.9z"/>
  <path class="cls-34" d="m132.7 139.7h-1.4l-0.1 1.3c0.9-0.1 2 0.3 2 1.4 0 1.9-1.6 2.6-3.1 1.7l0.3-0.8c1.1 1 2.1 0.6 2.1-0.6-0.1-0.7-0.9-1-1.6-0.8l0.1-2.5h2.3l0.1 0.1-0.2 0.7z"/>
  <polygon class="cls-31" points="138.2 138.9 138.9 141 140.9 141 139.2 142.3 139.9 145 137.9 143.7 135.9 145 136.5 142.3 135 141.1 137.2 141"/>
  <polygon class="cls-22" points="138 139.4 138.6 141.1 140.1 141.2 138.9 142 139.4 144 137.9 143 136.4 143.9 137.1 142.2 135.9 141.2 137.6 141.2"/>
  <polyline class="cls-33" points="139 141.2 137.9 141.2 139 140.4"/>
  <polygon class="cls-31" points="144.2 138.9 144.9 141 146.9 141 145.2 142.3 146.4 145 144.4 143.7 142.1 145 142.6 142.6 141.1 141.2 143.4 141.1"/>
  <polygon class="cls-22" points="144.4 139.4 144.9 141.2 146.5 141.2 145 142 145.6 144 144.2 143 142.5 143.9 143.2 142.2 142.1 141.2 143.9 141.2"/>
  <polyline class="cls-33" points="145.4 141.3 144.4 141.3 145.1 140.7"/>
  <polygon class="cls-31" points="150.6 138.9 151.4 140.9 153.9 141.1 152.2 142.4 152.9 145 151 143.7 148.5 145 149.1 142.4 147.7 141.1 149.9 141"/>
  <polygon class="cls-22" points="150.9 139.4 151.4 141.2 153.1 141.2 151.6 142.2 152.1 143.9 150.9 143.2 149.2 143.9 149.9 142.2 148.5 141.3 150.2 141.2"/>
  <polyline class="cls-33" points="152.1 141.3 151.1 141.3 151.9 140.9"/>
  <polygon class="cls-31" points="157 138.7 157.6 140.7 159.9 141.1 158.4 142.4 159.1 145 157.1 143.9 155 145.1 155.9 142.6 153.9 141.1 156.2 141"/>
  <polygon class="cls-22" points="156.9 139.4 157.4 141.2 159 141.2 157.4 142.3 158.1 143.9 156.9 143.2 155.4 144.1 155.9 142.3 154.6 141.3 156.4 141.1"/>
  <path class="cls-36" d="m130.9 149c-1.2 0.5-1.8 0.6-2 1.6 0 1.3 2.1 1 1.7-0.1l0.3 0.6c-1 1.8-3.8 1.3-2.4-0.7l0.6-0.4c0.4-0.4 0.4-0.4 0-0.4-0.9-1 1.8-2.9 2-1.2l-0.6 0.5c0.4-1.8-1.6-0.7-0.9 0.5l1.3-0.4z"/>
  <path class="cls-36" d="m133 149.7c-0.5 0.5-0.9 0.9-0.9 1l0.4 1.2h-0.4l-0.5-1-0.5 1.3-0.2 0.1 0.5-1.4-0.3-1.3h0.6l0.2 1 0.7-1 0.5-0.2-0.1 0.3z"/>
  <path class="cls-36" d="m134.9 150.9c-0.9 1.8-2 1.4-1.8 0s2-1.9 1.9-0.3l-0.4 0.1c0.1-0.3 0-1.2-0.6-0.2-0.6 1.5 0.7 1.4 0.9 0.4z"/>
  <path class="cls-36" d="m137.1 150.7c-0.7 1.7-2.2 1.7-1.9-0.1 0.3-1.6 2.2-1.5 1.4-0.2l-1 0.5c0 1 1.1 0.5 1.5-0.2zm-1.1-0.2 0.4-0.3c0.2-0.6-0.3-0.3-0.4 0.3z"/>
  <path class="cls-36" d="m138.7 150.6c-1.1 2-2 2.1-1.5-0.4 0.8-2.5 1.3-2.9 1.7-2.3 0.3 0.5-0.7 2.2-1.3 2.8 0 1.5 0.6 0.2 1.1-0.1zm-1.1-0.5c0.5-0.5 1-1.5 0.8-1.7l-0.8 1.7z"/>
  <path class="cls-36" d="m140 150.6c-1 1.8-2 2.1-1.4-0.2 0.8-2.5 1.1-3.2 1.6-2.7 0.5 0.7-0.7 2.4-1.2 3 0 1.3 0.6 0.4 0.9-0.1h0.1zm-1.1-0.6c0.5-0.5 1-1.5 0.8-1.6l-0.8 1.6z"/>
  <path class="cls-36" d="m141.9 150.6c-1 1.8-2.4 1.8-2 0 0.2-1.5 2.2-1.5 1.3-0.2l-0.8 0.5c0.1 0.8 1.1 0.5 1.5-0.3zm-1.3-0.2 0.5-0.3c0.1-0.6-0.5-0.1-0.5 0.3z"/>
  <path class="cls-36" d="m144.4 150.6c-0.9 1.7-1.8 2.1-1.5 0.8l0.3-1.2c-0.3-0.2-1.1 2-1.5 2l0.7-2.7h0.6l-0.3 0.9c0.7-1.3 1.4-1 0.9 0l-0.2 1c0.2 0.5 0.5-0.3 0.8-0.8h0.2z"/>
  <path class="cls-36" d="m145.9 150.6c-0.9 2-2.3 2-1.3-0.2l0.3-0.9h-0.5l0.1-0.3h0.5l0.4-0.8h0.4l-0.4 0.8h0.6l-0.1 0.3h-0.5l-0.4 1.9c-0.5 0.8 0.6-0.3 0.9-0.8z"/>
  <path class="cls-36" d="m149.7 149.1c-0.1-2.4-2.6-0.4-1.5 0.9 1.8 1.7-0.8 3.2-1.5 1.9l0.3-0.8 0.1 0.3c-0.1 1.2 1.5 0.8 1.3-0.3l-0.8-1.1c-0.6-2.3 2.5-2.9 2.1-1v0.1z"/>
  <path class="cls-36" d="m152.1 150.6c-0.7 2-2.2 1.8-2 0.1 0.4-1.7 2.4-1.6 1.3-0.3l-0.8 0.7c0 0.6 1 0.8 1.5-0.5zm-1.5-0.1 0.5-0.4c0.5-0.6-0.2-0.1-0.5 0.4z"/>
  <path class="cls-36" d="m154.1 150.5c-1.1 1.9-2.4 2.2-1.4 0.1l0.2-0.5h-0.3c-0.2 0.4-0.4 0.6-0.5 0.7l-0.2-0.1 0.5-0.7c-0.3-0.5 0.2-1.1 0.5-1l0.1 0.5 0.5 0.1c0 1-1 2.4 0.2 1.5l0.4-0.6z"/>
  <path class="cls-36" d="m156 150.5c-0.2 0.5-1.1 1.1-1.6 1.8l-0.5-2.7 0.5-0.1 0.2 1.9 0.8-0.9c0-1 0.7-1.3 0.6 0z"/>
  <path class="cls-36" d="m156.9 149.5-0.5 1.6c-0.5 1.1 0.7-0.2 0.7-0.5v0.3c-1 1.8-1.9 1.5-1.2-0.3l0.5-1.2 0.5 0.1zm-0.4-1-0.4 0.4c0.5 0.7 1.3 0 0.4-0.4z"/>
  <path class="cls-36" d="m158.7 150.6c-0.7 2-2.3 1.8-1.8 0 0.2-1.6 2.2-1.5 1.6-0.2h-0.5c0.2-0.8-0.4-0.8-0.6 0.3 0 1.2 1.2 0.7 1.3-0.1z"/>
  <path class="cls-36" d="m160.7 150.6c-0.6 1.8-2.3 2-2.1 0.3 0.3-1.9 2.5-1.9 1.3-0.5l-0.9 0.6c0.2 0.6 1.4 0.6 1.7-0.4zm-1.5 0 0.5-0.4c0-0.7-0.5-0.2-0.5 0.4z"/>
  <polyline class="cls-33" points="157.9 141.2 156.9 141.2 157.4 139.5"/>
  <path class="cls-37" d="m27.7 69.1c0.5-1.1-0.3-2.9-2.2-2.9-2 1.2-3.6 3.7-6 2.4-2.6-1.2-2.3-5.2 0.5-8.1l2.1 0.6 0.2 1.3c-4.2-1.3-4.6 3.4-1.8 3.4l0.6-0.3c1.6-1.4 3.8-3.9 6.5-2.1 2.9 1.7 1.1 5.9-1 8.7l-2.5-1.2-0.1-1.4 2.6 0.5 1.1-0.9z"/>
  <path class="cls-37" d="m35.4 55-1-0.3-3.5-2.3c-1.8-1-2 2-1 2.3l3.8 2 1-0.8 0.7 0.5-2.3 3.4-0.6-0.6 0.1-0.7-3.9-2.5c-1.8-1.1-2.2 1.7-1 2.2l3.7 2.4 1-0.7 0.2 0.7-2.2 3.3-0.8-0.6 0.3-0.7-4.9-3.6-0.9 0.5-0.4-0.3 1.2-2.6 1.5 0.7c-0.7-1.6-0.2-3.9 2.1-3.7-0.6-2 1.4-5 3.9-3.5l3.7 2.4 1-0.8 0.8 0.7-2 3.1-0.5-0.5z"/>
  <path class="cls-37" d="m43.6 47-0.6 1c-0.5 0.6-0.9 0.6-1.6-0.1 0.5 3.2-3.3 5-4.9 2.5-1.1-1.8 1.5-4.3 1.5-4.5l-1-1.2c-1.8-1.8-2.6 1.7-1.3 2l-0.7 1.2-1.6-1c0.6-2.3 3.3-6.4 6.2-3.5l2.8 2.5 1-0.5 0.5 0.5zm-5-0.9c-1.5 1.4 0.4 5 1.9 2.5 0.4-1-0.8-1.7-1.6-2.5h-0.3z"/>
  <path class="cls-37" d="m44.7 46-0.6-0.9 0.6-0.6-6.6-7.4-1 0.9-0.6-0.7 2.1-2.8 7.9 8.5 1-0.6 0.6 0.5-3.4 3.1z"/>
  <path class="cls-37" d="m48.9 42.4-0.5-0.9 0.6-0.6-6.4-7.8-0.7 0.9-0.9-0.6 2.4-2.8 7.1 8.5 1-0.2 0.5 0.5-3.1 3z"/>
  <path class="cls-37" d="m56.2 36.2-0.5-0.7 0.8-0.6-4.5-8-1.1 0.4-0.5-0.8c3.1-1.5 8-6.1 9.8-2.1 0.7 1.8-1.1 3.2-1.2 3.2 4-2.4 6.4 2.3 3.1 4.9zm-2.2-10.6 2 3.3c3.2-1.5 1.6-5.8-1.6-3.5zm2.6 4.3 2.3 3.5c3.2-0.9 3.1-5.7-1.3-3.9z"/>
  <path class="cls-37" d="m70.4 26.9c-0.5 2.7-3.4 4.3-4.9 2.1l-2.1-4.6h-1l-0.3-0.8 2.9-1.4 2.1 4.7c0.8 2 3.4 1.1 2.8-1l-1.5-3.4-1.5-0.4-0.2-0.1 3-1.8 2.7 6h1.2l0.3 0.7-2.3 1.7-0.7-1.7h-0.5z"/>
  <path class="cls-37" d="m77.4 26.2-2.5 0.4-0.4-2.2 1-0.4 0.9 1.2c2.1 1.2 3-1.3 1.1-1.8-3.9-0.4-5.3-2.5-4-4 1.2-1.4 3.1-1.3 4.5-1.5l0.5 2.1-0.9 0.5c-0.2-2.4-3.7-1.3-2.1 0.4l3.4 1c1.8 1.1 2.1 4-1.5 4.3z"/>
  <path class="cls-37" d="m81.9 25-0.3-0.8 0.9-0.5-0.9-5.3h-1.2l-0.2-0.8 3.4-1.4 1.4 7.5 0.9-0.1 0.1 0.8-4.1 0.6zm0.1-9.5c-2 0-2-2.3 0-2.5 1.7 0 1.6 2.5 0 2.5z"/>
  <path class="cls-37" d="m92.4 23.6-0.2-0.9 0.8-0.3-0.5-4.4c-0.1-2-2.8-2-3 0.4l0.5 4.1 1.1 0.4-0.1 1-4.1 0.2-0.2-0.5h1l-0.6-6.2h-1l-0.1-0.8 3.2-1v1.8c1-2 4.8-3.4 5.3 0l0.5 5 1 0.1v0.7l-3.6 0.4z"/>
  <path class="cls-37" d="m99.4 19.4c0 1.7 1.8 3.1 4 2.2l0.2 0.5c-1.7 1.9-6.2 1.9-6.6-2.1-0.9-5.6 5-6 6.6-3.9 0.6 0.8 0.4 2.3 0.1 3.3h-4.3zm2.3-1c0.2-2.4-0.6-2.5-1.6-2.3-0.6 0.1-0.7 1.3-0.7 2.5l2.3-0.2z"/>
  <path class="cls-37" d="m107.4 23.9-2.4-0.9 0.6-2.3h1l0.4 1.8c1.1 1.6 3.5-0.1 1.9-1.6l-2.3-1.5c-1.6-1.8-0.7-3.9 2-3.8l2.9 0.5-0.5 2.3h-1c0.4-2.5-3.3-2.3-1.9-0.3l3 2.1c1.4 2.3-0.6 4.7-3.7 3.7z"/>
  <path class="cls-37" d="m114.7 24.9-2.1-0.9 0.5-2.4h1l0.3 1.8c1.5 1.6 3.3 0 1.7-1.5-4.4-3-2.5-6.4 3.6-4.3l-0.6 2.4h-1c0.3-2.4-3.4-3-2-0.8l2.1 1.8c1.9 2.2-0.2 5.2-3.5 3.9z"/>
  <path class="cls-37" d="m128.7 23.6-1.3 3.3 1.2 1-0.6 0.7-4.8-2 0.3-0.7h1.2l3.4-8-1-0.8 0.3-0.7c2.6 1.2 8.7 1.6 8.1 5.6-0.9 3.9-4.8 3.7-6.8 1.6zm1.8-5-1.8 4.4c2.9 1.9 5.7-3.8 1.8-4.4z"/>
  <path class="cls-37" d="m132.9 30.5 0.2-0.6h1.1l4.5-8.3-1-0.6 0.3-0.5 3.4 0.9-5.3 9.7 0.9 0.8-0.3 0.6-3.8-2z"/>
  <path class="cls-37" d="m144 36.9-2-1 0.6-1.5c-3.6 1.5-5.9-2-3.5-4 1.8-0.9 4.3 0.7 4.8 0.7l0.8-1.6c1-1.9-1.8-2.1-1.7-0.6l-1.1-0.3c-1-3.5 4-1 5.2 0.8 0.8 1.6-2.5 5.3-2.9 6.5l0.8 0.5-1 0.5zm-0.3-4.9c-3.2-1.9-4.6 2.9-1.6 1.6l1.6-1.6z"/>
  <path class="cls-37" d="m155.5 36.7-7.5 4.3c-4 2.4-4.9-0.5-3-1.9l1 0.5c0 2.4 2 0.4 1.9-0.5l1.5-6.6-0.5-0.6 0.7-0.8 3.1 2.5-0.5 0.5-0.6-0.2-1.2 4.6c1-0.6 4.2-2.8 3.3-3.5l0.3-0.9 2.4 2.3-0.4 0.6-0.6-0.3z"/>
  <path class="cls-37" d="m154 45.5-2.1-1.8 7.5-7.7-0.7-1 0.4-0.4 3 2-4 4.1c4.1-1.5 5 3.2 1.8 5.9-3 2-5.9 0.3-5.9-1.1zm0.6-0.4c1.8 3.3 7.3-3.1 4-4l-0.7 0.3-3.3 3.3v0.4z"/>
  <path class="cls-37" d="m159.9 53c-3-4.6 3-8.6 6.6-5 3.4 3.4-0.9 8.9-5.1 6.4l-1.5-1.4zm2.3 0c4.5-2 5.2-6 1.2-4.4-3.8 2.3-3.5 4-1.2 4.4z"/>
  <path class="cls-37" d="m165.5 60.5c-2.6-4.1 2.6-8.9 6.5-5.1 3.9 4.6-3.1 9.5-6.4 5.1zm2.2-0.1c4.7-1.8 5.7-4.9 1.7-4.3-3.3 1.3-4.4 3.6-1.8 4.3h0.1z"/>
  <path class="cls-37" d="m170.1 68.6-0.7 0.3-1.3-4.2 0.8-0.3 0.5 0.6 9.1-4.4-0.4-1.1h1l1.9 3-7.8 3.4 4.2-0.3 1.6 3.4-0.6 0.4-3-1.4-0.9 0.1-0.9 1.3c-2 3 0 3.7-1.7 4.3l-0.7-2c-0.7-1.8 2.3-5.2 2.4-5.7l-0.2 0.2-2.7 1.2-0.6 1.2z"/>
  <path class="cls-25" d="m47.9 137c3.1-1.1 7-3.4 10.1-7 1.6-3.8 4.2-7.4 8.7-3.6 6.2 5.2 8.4 20.5 3.7 27.6-3.3 2-5.4 0-7.9-2.1-3-1-6.5-2.4-11.4-2.3l-1.5 0.8 0.3 2-0.9 1c1 1.8 2.1 4.2 4 6 1 1.2-1.6 3.2-3 4-0.5 0.2-2 0.2-2.4-0.3l-4.1-8.4c-1.6 0.4-2.1-0.8-3-2.5-1.1 0.4-2-1.1-2.5-0.8-2 0.2-3.4 0.6-4.9-2.4-1.2-2.4-1.6-7.3 1-8.4l2-0.6c1-1.9 2.1-1 2.8-1.1l7.1-2h1.5l0.4 0.1z"/>
  <radialGradient id="Object_welkom_00000115481439527746313950000000170603143113407295_" cx="54.46" cy="115.7" r="15.49" fx="55.06" fy="123.8" gradientTransform="matrix(1 0 0 -1 0 240)" gradientUnits="userSpaceOnUse">
    <stop stop-color="#604830" offset=".02"/>
    <stop stop-color="#765D3D" offset=".08"/>
    <stop stop-color="#997D50" offset=".19"/>
    <stop stop-color="#B5965F" offset=".3"/>
    <stop stop-color="#CAAA6A" offset=".4"/>
    <stop stop-color="#D6B671" offset=".51"/>
    <stop stop-color="#DBBA73" offset=".62"/>
  </radialGradient>
  <path d="m38.1 139.5 7.5-1.6c-2.1 2.5-0.5 7.7 1.3 10.2l-7.4 1c-2.4-1.4-3.4-7.4-1.4-9.6z" fill="url(#Object_welkom_00000115481439527746313950000000170603143113407295_)"/>
  <path class="cls-22" d="m45.9 149 1.5 3.6c0.8 2.4 3.1 5.8 3.5 7l-2.9 2.8-4.1-8c0.7-1.3 2-2.4 3.6-3.1l-2.1-2.1 0.5-0.2z"/>
  <path class="cls-22" d="m47.5 153.6 3.5 5.8 1.5-0.4c-1.6-1.6-3.8-6.1-3.6-5.8l-1.4 0.4z"/>
  <path class="cls-22" d="m47.9 162.9 3.8-3.3 0.9-0.2c0.8 0.1-3.2 4.5-4.7 3.5z"/>
  <ellipse class="cls-22" transform="matrix(.9673 -.2538 .2538 .9673 -35.89 18.9)" cx="65" cy="139.4" rx="5.1" ry="14.1"/>
  <path class="cls-25" d="m62.1 126.1c3.9-1.4 8.5 9 8.6 15.6 0.2 13.7-5.2 10.9-8.1 5.2-1.9-3.8-5.6-17.8-0.5-20.8z"/>
  <path class="cls-22" d="m47.4 137.6c3.6-1.6 6.8-3.7 10.1-6.7l-0.4 4.7 2.8 15.3c-3.3-0.7-6.5-1.4-9.9-1.5-3 0.7-6-9.4-2.6-11.8z"/>
  <linearGradient id="Path-4_00000183969263333587081140000018156832076149922607_" x1="46.36" x2="46.73" y1="-81.72" y2="-76.77" gradientTransform="translate(0 221)" gradientUnits="userSpaceOnUse">
    <stop stop-color="#6B5234" offset="0"/>
    <stop stop-color="#C4A576" offset="1"/>
  </linearGradient>
  <path d="m40 150.4 6.5-1.3 1.4 1.8-4.5 3.6c-0.9 0.5-1.9-0.6-3.4-4.1z" fill="url(#Path-4_00000183969263333587081140000018156832076149922607_)"/>
  <path class="cls-22" d="m33.7 142.1c0.3-0.5 1.3-1 2.2-1.1-1.3 3.1 0.1 7.4 2 9.6-0.8 0.3-2.9 1-4.2-2-1-2.2-1.1-5 0-6.5z"/>
  <path class="cls-35" d="m37.4 142.9 7.1-1.8m-6.9-0.6 6.8-1.5"/>
  <path class="cls-21" d="m46.2 140.5c2.9-1 7-2.6 10.4-4.5"/>
  <path class="cls-25" d="m43.1 151.4c0.6 1-0.7 1.3-0.7 0.2 0.1-0.6 0.6-0.7 0.7-0.2zm-8.2-8.3c0.5 1-1.3 1-0.9 0 0.2-0.4 0.9-0.2 0.9 0zm-0.4 2c0.6 1.1-1.3 1.5-0.8 0 0.3-0.2 0.9-0.1 0.9 0"/>
  <path class="cls-22" d="m37.4 139.5c-1.3 2.1-1 8.1 2.1 10.4"/>
  <path class="cls-22" d="m46.2 137.6c-1.3 2.4-0.5 10.3 3.4 11.9"/>
  <path class="cls-22" d="m47.6 150.4-0.2 2.6 2-0.4-0.3-2.7-1.5 0.1v0.4z"/>
  <path class="cls-28" d="m63.9 136.4-4.8 0.2 1.5 8.8 5.8-2.2c2.5-2.1 0.2-8.3-2.5-6.8z"/>
  <ellipse class="cls-22" transform="matrix(.9673 -.2538 .2538 .9673 -35.1 21.82)" cx="65.1" cy="139.7" rx="1.6" ry="3.2"/>
  <path class="cls-32" d="m65.4 141-0.7-1.9c-0.2-3 1.7-1.5 1.5 1.4 0 0.6-0.8 1.2-0.8 0.5z"/>
  <path class="cls-25" d="m60 140.4 3.1-0.4-3.1 0.2v0.2zm0.2 0.7 3.3-0.1-3.3 0.4v-0.3zm0 0.9 3.7-0.1-3.4 0.5-0.3-0.4zm0.2 0.9 4.1-0.5-4 1.2-0.1-0.7z"/>
  <path class="cls-10" d="m126.6 95.5 2.3 4c1 1.5 0.7 2.2-0.9 3.2l-4.4-7c0-0.6 2.1-2 2.6-0.1l0.4-0.1z"/>
  <path class="cls-25" d="m124.2 95.9c0.4-0.4 0.9-0.4 1.3 0.5l2.1 4c0.3 0.6 0.4 1-0.1 1.2l-3.3-5.7z"/>
  <path class="cls-34" d="m68 93.4c-1-0.3-5.9 3.2-4.5 5.6l3 6.1 12.9 25.3 2.7 7.6c0.9 2.1 3.3 1.5 4.4 1.1l19.9-6.1c1.8 2 7 0.6 8.6-2.4l19.4-5.2c1.6-0.4 2.7-1.3 1.6-3.7l-1.6-3.1-41.9-28.2c-3.4-3.9-13.3-1.8-18.8 1l-4.7 0.6c-1 0.1-1.1 1-1 1.4z"/>
  <polygon class="cls-14" points="90.7 135.9 90.9 137.6 94.5 136.7 94.1 135"/>
  <path class="cls-18" d="m92.1 90.4c3.4-4 8.5-6 17-8l4.5-1.5c0.8-0.3 1.9 0.1 2.4 1.8l18.7 32.7-24 11.5-18.3-36.3"/>
  <path class="cls-20" d="m92.1 90.5 18.5 36.4c3.9-5 12.1-7.7 24-10 1.3-0.3 1-1.8 0.1-2.9l-18.6-31.4c-0.1 1.4-1.5 1.4-2.4 0.5l-4.6-0.7c-4.6 1-13.5 2.6-17 8.1z"/>
  <path class="cls-17" d="m93 90.6c3-4.1 10.6-6.1 16-7.4 3 0.8 6.7 1.4 8.1 4.8l10.5 18c2.1 5.4 0.6 11.2-6.5 12.4-4.2 0.2-6.4-0.8-11-8l-12.4-23.3-4.7 3.5z"/>
  <path class="cls-18" d="m86.2 130.4c-1.1-2.2-12.2-24.7-17.6-36.4-0.4-1.3-0.1-1.9 1.4-2l2.9-0.6 0.6 0.6 1-1c4.5-1.1 13.5-4 17.2-1l18.9 36.9-23 2.5-1.4 1z"/>
  <path class="cls-17" d="m89 89.9-4-0.3-10 2.4-1.1 0.9c-2.7 0.6-1.4 5.3 0 7.5l8.6 17.2c4.1 4.1 15.7 10.5 18.6 4.1 0.5-1.8 0.3-2.7-1-5.8-4-8.3-7.7-16.8-13-25.4l1.9-0.6z"/>
  <path class="cls-20" d="m86.2 130.4c-0.6 1.3-0.1 2.1-0.7 3.2l21.4-5.9 3 0.4 0.7-1.2c-4.7-2.3-11.1-1.8-20.5 2.2l-3.9 1.3z"/>
  <path class="cls-14" d="m83 138c0 1.4 0.7 1.1 2 1l5.9-1.5v-1.6l-6 1.6c-0.9 0.2-1.5-0.1-1.9 0.5z"/>
  <path class="cls-14" d="m83.9 137 22.7-6 3.9-4.1c-2.8-1.9-10.6-0.8-19.6 2.1l-4.7 1.5-0.7 3.1c-1.8 1.6-2.1 4.8-1.6 3.4z"/>
  <path class="cls-14" d="m106.6 132.1c1.4 2.3 6.8 1.3 7.8-1.7l15.5-4.4c1-1.3 0.1-1.9-0.7-1.9l-14.2 4.4-4.1-1.4-1.9 2-2.4 3z"/>
  <path class="cls-14" d="m129.4 124.4 5.5-1.7-0.4-2.6 0.4-2.5 0.6-0.6c0.7 1-0.5 1.4-0.5 1.6l-0.1 1.4c1.2 1.7 2 2.7 1.1 4l-5.6 2h-1s0.7-1.6 0-1.6z"/>
  <linearGradient id="Shape_00000033337538187772578380000018395309207090491422_" x1="57.71" x2="68.64" y1="50.11" y2="50.11" gradientTransform="matrix(.9311 .3647 .3647 -.9311 -19.89 111.8)" gradientUnits="userSpaceOnUse">
    <stop stop-color="#694A29" offset="0"/>
    <stop stop-color="#8B6D42" offset="1"/>
  </linearGradient>
  <path d="m68 93.4c-1-0.3-6.1 2.8-4.3 5.6l2.8 6.1 1-0.2 11.5 22.5c0.7-1 2.9-3 5-2.8l-11.6-23.2-4.4-8z" clip-rule="evenodd" fill="url(#Shape_00000033337538187772578380000018395309207090491422_)" fill-rule="evenodd" stroke="#272119" stroke-width=".6"/>
  <path class="cls-22" d="m69 93.9 2.6 5.7c-2.6 0.8-4.6 3-5 4.4"/>
  <path class="cls-15" d="m66.7 104.6c0.4 2 1.2 1.6 0.8 0.5 0.1-1.6 2.9-3.7 4.6-3.7 0.4-0.8-2.1-1.4-5.4 3.2z"/>
  <path class="cls-15" d="m73 117.9c-0.1 2.2 0.7 1.7 0.5 0.6 0.2-2.1 3.2-3.9 4.7-3.9 0.5-0.7-2.7-1.2-5.2 3.3zm5 10.6c-0.5 2.4 0.5 2 0.2 0.9 0.5-2.2 3.3-4.5 5.5-4.5 0.5-0.7-3.7-0.9-5.7 3.6z"/>
  <path class="cls-22" d="m85.4 131.1-2-5c-2.7 0.5-5.3 3.3-1.3 11.4-0.1-2.1 1.5-4.4 3.3-6.4z"/>
  <path class="cls-15" d="m82.4 137.7c-0.2-2.5 1.7-4.1 3.2-6.1l-0.1-1.2-2.6 3c-0.9 1.5-1.2 3-0.5 4.3z"/>
  <path class="cls-21" d="m93.9 90 2.3 4.2m-2.8-4.3 3 5.8m-2.2-6.3 5.8 11.2m4.5-16 4.5-1m4.5-1c0.6-0.9 1.7 1.5 2.5 1.3m-11.4 31.1 4.8 8.6m-1.4-5.9 3.6 6.8m-3.4-6.4 3.9 6.3m-1-4.3 1.5 3m0.3-1.5 0.5 0.8m-9.2-5 3.4 6.6m-3.1-3.9 3.4 4.6m-2.5-2.3 3 2.7m-9-0.6c3.5-0.6 6.5-0.6 8.8 0.6m-22.2 7.5c10.6-3.6 16.6-6.9 23.1-5.2m-23.7 6.6c10.1-3.1 18-7.1 23.1-5.6m-23.4 6.6c8.3-2 18.6-6.6 23.1-5.6m-23.7 7.3c6.2-1.7 19-6.5 22.9-6.6"/>
  <path class="cls-21" d="m86 125.1 1.5 1c0.5 0.5 2 0 3.1 2"/>
  <path class="cls-21" d="m86.5 127c0.6 0.9 1.6-0.3 4 1.1"/>
  <path class="cls-21" d="m90.5 127.6 6.4-1.9"/>
  <path class="cls-21" d="m95 126.6 5.6-1.5"/>
  <path class="cls-21" d="m75.6 92.1 6.3-1.5"/>
  <path class="cls-21" d="m98 124.6 2.2-0.2"/>
  <path class="cls-21" d="m97.6 87.9 4.4-2.3"/>
  <path class="cls-21" d="m110 126.9c4.5-5.3 11-8.3 24.6-9.9m-23 10.4c2.9-2.8 9.4-6.8 22.6-9.3m-22.3 9.5c5.8-4.7 12.1-6.5 22.2-8.2m-21 8.5c5.9-3.5 10.9-4.8 21-7.4m-20.5 7.7c5.6-2.6 10.5-3.6 20.4-6.6"/>
  <path class="cls-21" d="m116 122.1 3.9-2"/>
  <path class="cls-24" d="m66.4 95.9-1.8 3m1.9-1.9-1.6 2.5m1.8-1.5-1.1 1.6m1.4-1.1-1.3 2m1.3-1.1-0.9 1.5m0.5 0.7 0.8-1.5m12.4 12 3.1 6.4m-4.7-7.5 4.2 8.4m1.2 1.3 3.3 6.3"/>
  <path class="cls-21" d="m131 116c1.1-0.1 3.6-0.3 1.1-2.9"/>
  <path class="cls-24" d="m69.5 93.4 1.6-0.4 0.5 0.4 0.9-0.8 1.1 0.4 0.5-1.3 0.3 1.4"/>
  <path class="cls-21" d="m117 121.1 6.1-2.7"/>
</svg>